<svg width="963" height="747" viewBox="0 0 963 747" fill="none" xmlns="http://www.w3.org/2000/svg">
<path d="M234.5 187.285C93.7452 267.575 -3.2484 541.523 150.209 593.574C216.269 615.981 258.31 565.688 327.664 573.177C401.712 581.173 433.053 645.207 507.148 637.656C597.873 628.41 607.11 528.493 691.829 494.742C754.068 469.947 810.083 508.683 860.763 464.864C944.403 392.546 921.162 270.134 818.556 184.898C715.95 99.6614 648.116 205.769 538.364 206.845C419.458 208.01 337.789 128.366 234.5 187.285Z" fill="url(#paint0_linear_28_80)" fill-opacity="0.54"/>
<path d="M320.5 255C373.5 337.5 525 413.5 525 413.5L337.5 46.5L280 76.5C280 76.5 279.986 191.936 320.5 255Z" fill="url(#paint1_linear_28_80)"/>
<path d="M648.733 238.168C635.091 322.363 524.834 413.441 524.834 413.441L480.567 65.2736L557.681 75.4258L630.938 85.0702C630.938 85.0702 657.844 181.935 648.733 238.168Z" fill="url(#paint2_linear_28_80)"/>
<path d="M355.058 199.505C389.001 289.965 524.186 413.355 524.186 413.355L492.134 66.7964L410.519 56.0516L337.263 46.4071C337.263 46.4071 332.388 139.087 355.058 199.505Z" fill="url(#paint3_linear_28_80)"/>
<path d="M500.759 258.447C491.437 257.344 482.871 254.122 475.059 248.781C467.248 243.44 460.64 236.104 455.235 226.774C449.808 217.298 446.104 205.961 444.125 192.762C441.166 173.036 443.2 158.46 450.227 149.034C457.4 139.625 468.487 135.808 483.489 137.584C489.024 138.239 494.168 139.631 498.923 141.761C503.656 143.746 507.976 146.323 511.885 149.493C515.918 152.535 519.445 156.015 522.464 159.934L523.338 160.038L523.796 144.492L539.09 146.302L552.73 237.244C553.404 241.741 554.757 245.035 556.787 247.128C558.796 249.075 561.039 250.195 563.515 250.488C564.68 250.626 565.896 250.628 567.164 250.493C568.431 250.358 569.345 250.252 569.906 250.176L571.994 264.101C571.331 264.449 570.377 264.764 569.131 265.044C567.886 265.324 566.484 265.514 564.925 265.615C563.366 265.715 561.786 265.67 560.184 265.481C554.795 264.843 550.084 263.003 546.051 259.961C542.164 256.937 538.919 251.994 536.316 245.132L534.787 244.951C532.978 248.156 530.533 250.93 527.451 253.272C524.347 255.469 520.584 257.09 516.163 258.134C511.719 259.032 506.585 259.137 500.759 258.447ZM502.309 243.031C510.32 243.979 516.5 243.214 520.85 240.737C525.345 238.277 528.206 233.986 529.434 227.862C530.661 221.739 530.535 213.746 529.056 203.883L528.86 202.577C526.685 188.073 522.545 176.684 516.439 168.411C510.48 160.154 501.237 155.285 488.711 153.802C478.079 152.544 470.728 155.521 466.66 162.732C462.715 169.816 461.841 180.683 464.039 195.333C466.214 209.837 470.551 221.107 477.05 229.142C483.548 237.177 491.968 241.807 502.309 243.031Z" fill="white"/>
<path d="M456.995 451.669C469.494 480.302 403.029 468.939 376.995 451.669C359.572 440.111 340.642 427.741 346.495 407.669C354.025 381.84 388.419 414.72 412.995 425.669C431.226 433.791 449.009 433.377 456.995 451.669Z" fill="url(#paint4_linear_28_80)"/>
<path d="M550.656 452.153C538.735 464.379 563.984 470.526 577.344 466.458L577.55 466.396C586.433 463.692 595.976 460.788 599.431 449.69C603.911 435.298 583.536 445.754 572.373 446.889C564.093 447.732 558.272 444.343 550.656 452.153Z" fill="url(#paint5_linear_28_80)"/>
<path d="M550.656 452.153C538.735 464.379 563.984 470.526 577.344 466.458L577.55 466.396C586.433 463.692 595.976 460.788 599.431 449.69C603.911 435.298 583.536 445.754 572.373 446.889C564.093 447.732 558.272 444.343 550.656 452.153Z" fill="url(#paint6_linear_28_80)"/>
<path d="M614.122 397.155C601.876 425.898 668.238 413.947 694.119 396.447C711.438 384.736 730.257 372.198 724.228 352.179C716.469 326.417 682.368 359.601 657.89 370.767C639.731 379.05 621.945 378.794 614.122 397.155Z" fill="url(#paint7_linear_28_80)"/>
<path d="M614.122 397.155C601.876 425.898 668.238 413.947 694.119 396.447C711.438 384.736 730.257 372.198 724.228 352.179C716.469 326.417 682.368 359.601 657.89 370.767C639.731 379.05 621.945 378.794 614.122 397.155Z" fill="url(#paint8_linear_28_80)"/>
<defs>
<linearGradient id="paint0_linear_28_80" x1="554.11" y1="625.933" x2="408.602" y2="131.168" gradientUnits="userSpaceOnUse">
<stop stop-color="#E3F3EE" stop-opacity="0.4"/>
<stop offset="1" stop-color="#E3F3F1" stop-opacity="0.4"/>
</linearGradient>
<linearGradient id="paint1_linear_28_80" x1="448" y1="221.5" x2="265.5" y2="422.5" gradientUnits="userSpaceOnUse">
<stop stop-color="#42BD98"/>
<stop offset="1" stop-color="#1CEF8A"/>
</linearGradient>
<linearGradient id="paint2_linear_28_80" x1="561.212" y1="75.8907" x2="516.91" y2="412.397" gradientUnits="userSpaceOnUse">
<stop stop-color="#42BD98"/>
<stop offset="1" stop-color="#1CEF8A"/>
</linearGradient>
<linearGradient id="paint3_linear_28_80" x1="406.988" y1="55.5867" x2="362.686" y2="392.093" gradientUnits="userSpaceOnUse">
<stop stop-color="#42BD98"/>
<stop offset="1" stop-color="#1CEF8A"/>
</linearGradient>
<linearGradient id="paint4_linear_28_80" x1="400.591" y1="398" x2="400.591" y2="469.139" gradientUnits="userSpaceOnUse">
<stop stop-color="#42BD98"/>
<stop offset="1" stop-color="#1CEF8A"/>
</linearGradient>
<linearGradient id="paint5_linear_28_80" x1="584.002" y1="435.133" x2="564.743" y2="471.062" gradientUnits="userSpaceOnUse">
<stop stop-color="#42BD98"/>
<stop offset="1" stop-color="#1CEF8A"/>
</linearGradient>
<linearGradient id="paint6_linear_28_80" x1="584.002" y1="435.133" x2="564.743" y2="471.062" gradientUnits="userSpaceOnUse">
<stop stop-color="#42BD98"/>
<stop offset="1" stop-color="#1CEF8A"/>
</linearGradient>
<linearGradient id="paint7_linear_28_80" x1="670.048" y1="342.989" x2="670.678" y2="414.125" gradientUnits="userSpaceOnUse">
<stop stop-color="#42BD98"/>
<stop offset="1" stop-color="#1CEF8A"/>
</linearGradient>
<linearGradient id="paint8_linear_28_80" x1="670.048" y1="342.989" x2="670.678" y2="414.125" gradientUnits="userSpaceOnUse">
<stop stop-color="#42BD98"/>
<stop offset="1" stop-color="#1CEF8A"/>
</linearGradient>
</defs>
</svg>
