<svg width="446" height="481" viewBox="0 0 446 481" fill="none" xmlns="http://www.w3.org/2000/svg">
<path d="M40.5 255C93.5 337.5 245 413.5 245 413.5L57.5 46.5L0 76.5C0 76.5 -0.0141144 191.936 40.5 255Z" fill="url(#paint0_linear_28_13)"/>
<path d="M368.733 238.168C355.091 322.363 244.834 413.441 244.834 413.441L200.567 65.2736L277.681 75.4258L350.938 85.0702C350.938 85.0702 377.844 181.935 368.733 238.168Z" fill="url(#paint1_linear_28_13)"/>
<path d="M75.0577 199.505C109 289.965 244.186 413.355 244.186 413.355L212.134 66.7964L130.519 56.0516L57.2624 46.4071C57.2624 46.4071 52.3877 139.087 75.0577 199.505Z" fill="url(#paint2_linear_28_13)"/>
<path d="M220.759 258.447C211.437 257.344 202.871 254.122 195.059 248.781C187.248 243.44 180.64 236.104 175.235 226.774C169.808 217.298 166.104 205.961 164.125 192.762C161.166 173.036 163.2 158.46 170.227 149.034C177.4 139.625 188.487 135.808 203.489 137.584C209.024 138.239 214.168 139.631 218.923 141.761C223.656 143.746 227.976 146.323 231.885 149.493C235.918 152.535 239.445 156.015 242.464 159.934L243.338 160.038L243.796 144.492L259.09 146.302L272.73 237.244C273.404 241.741 274.757 245.035 276.787 247.128C278.796 249.075 281.039 250.195 283.515 250.488C284.68 250.626 285.896 250.628 287.164 250.493C288.431 250.358 289.345 250.252 289.906 250.176L291.994 264.101C291.331 264.449 290.377 264.764 289.131 265.044C287.886 265.324 286.484 265.514 284.925 265.615C283.366 265.715 281.786 265.67 280.184 265.481C274.795 264.843 270.084 263.003 266.051 259.961C262.164 256.937 258.919 251.994 256.316 245.132L254.787 244.951C252.978 248.156 250.533 250.93 247.451 253.272C244.347 255.469 240.584 257.09 236.163 258.134C231.719 259.032 226.585 259.137 220.759 258.447ZM222.309 243.031C230.32 243.979 236.5 243.214 240.85 240.737C245.345 238.277 248.206 233.986 249.434 227.862C250.661 221.739 250.535 213.746 249.056 203.883L248.86 202.577C246.685 188.073 242.545 176.684 236.439 168.411C230.48 160.154 221.237 155.285 208.711 153.802C198.079 152.544 190.728 155.521 186.66 162.732C182.715 169.816 181.841 180.683 184.039 195.333C186.214 209.837 190.551 221.107 197.05 229.142C203.548 237.177 211.968 241.807 222.309 243.031Z" fill="white"/>
<path d="M176.995 451.669C189.494 480.302 123.029 468.939 96.9946 451.669C79.5719 440.111 60.6425 427.741 66.4946 407.669C74.0252 381.84 108.419 414.72 132.995 425.669C151.226 433.791 169.009 433.377 176.995 451.669Z" fill="url(#paint3_linear_28_13)"/>
<path d="M270.656 452.153C258.735 464.379 283.984 470.526 297.344 466.458L297.55 466.396C306.433 463.692 315.976 460.788 319.431 449.69C323.911 435.298 303.536 445.754 292.373 446.889C284.093 447.732 278.272 444.343 270.656 452.153Z" fill="url(#paint4_linear_28_13)"/>
<path d="M270.656 452.153C258.735 464.379 283.984 470.526 297.344 466.458L297.55 466.396C306.433 463.692 315.976 460.788 319.431 449.69C323.911 435.298 303.536 445.754 292.373 446.889C284.093 447.732 278.272 444.343 270.656 452.153Z" fill="url(#paint5_linear_28_13)"/>
<path d="M334.122 397.155C321.876 425.898 388.238 413.947 414.119 396.447C431.438 384.736 450.257 372.198 444.228 352.179C436.469 326.417 402.368 359.601 377.89 370.767C359.731 379.05 341.945 378.794 334.122 397.155Z" fill="url(#paint6_linear_28_13)"/>
<path d="M334.122 397.155C321.876 425.898 388.238 413.947 414.119 396.447C431.438 384.736 450.257 372.198 444.228 352.179C436.469 326.417 402.368 359.601 377.89 370.767C359.731 379.05 341.945 378.794 334.122 397.155Z" fill="url(#paint7_linear_28_13)"/>
<defs>
<linearGradient id="paint0_linear_28_13" x1="168" y1="221.5" x2="-14.5" y2="422.5" gradientUnits="userSpaceOnUse">
<stop stop-color="#42BD98"/>
<stop offset="1" stop-color="#1CEF8A"/>
</linearGradient>
<linearGradient id="paint1_linear_28_13" x1="281.212" y1="75.8907" x2="236.91" y2="412.397" gradientUnits="userSpaceOnUse">
<stop stop-color="#42BD98"/>
<stop offset="1" stop-color="#1CEF8A"/>
</linearGradient>
<linearGradient id="paint2_linear_28_13" x1="126.988" y1="55.5867" x2="82.686" y2="392.093" gradientUnits="userSpaceOnUse">
<stop stop-color="#42BD98"/>
<stop offset="1" stop-color="#1CEF8A"/>
</linearGradient>
<linearGradient id="paint3_linear_28_13" x1="120.591" y1="398" x2="120.591" y2="469.139" gradientUnits="userSpaceOnUse">
<stop stop-color="#42BD98"/>
<stop offset="1" stop-color="#1CEF8A"/>
</linearGradient>
<linearGradient id="paint4_linear_28_13" x1="304.002" y1="435.133" x2="284.743" y2="471.062" gradientUnits="userSpaceOnUse">
<stop stop-color="#42BD98"/>
<stop offset="1" stop-color="#1CEF8A"/>
</linearGradient>
<linearGradient id="paint5_linear_28_13" x1="304.002" y1="435.133" x2="284.743" y2="471.062" gradientUnits="userSpaceOnUse">
<stop stop-color="#42BD98"/>
<stop offset="1" stop-color="#1CEF8A"/>
</linearGradient>
<linearGradient id="paint6_linear_28_13" x1="390.048" y1="342.989" x2="390.678" y2="414.125" gradientUnits="userSpaceOnUse">
<stop stop-color="#42BD98"/>
<stop offset="1" stop-color="#1CEF8A"/>
</linearGradient>
<linearGradient id="paint7_linear_28_13" x1="390.048" y1="342.989" x2="390.678" y2="414.125" gradientUnits="userSpaceOnUse">
<stop stop-color="#42BD98"/>
<stop offset="1" stop-color="#1CEF8A"/>
</linearGradient>
</defs>
</svg>
